# File created by Blade
# Date/Time:  Tue Jan 27 17:27:44 2015
#---------------------------------------------------------
:version 1.10
:name HOM
:units
  mass 1.0
  length 1.000000
  angle deg
:documentation
     Acclaim Skeleton File
:root
   axis xyz
   order TX TY TZ RX RY RZ
   position 0.000000 0.000000 0.000000
   orientation 0 0 0
:bonedata
   begin
      id 1
      name Spine_dum
      direction 0.000000 1.000000 0.000000
      length 7.539951
      axis 0.0 0.0 0.0 xyz
   end
   begin
      id 2
      name LeftUpLeg_dum
      direction 1.000000 0.000000 0.000000
      length 3.345476
      axis 0.0 0.0 0.0 xyz
   end
   begin
      id 3
      name RightUpLeg_dum
      direction -1.000000 0.000000 0.000000
      length 3.345476
      axis 0.0 0.0 0.0 xyz
   end
   begin
      id 4
      name Spine
      direction 0.000000 1.000000 0.000000
      length 0.000000
      axis 0.0 0.0 0.0 xyz
      dof rx ry rz
   end
   begin
      id 5
      name Spine_dum1
      direction 0.000000 1.000000 0.000000
      length 15.093809
      axis 0.0 0.0 0.0 xyz
   end
   begin
      id 6
      name Spine_dum2
      direction 0.000000 1.000000 0.000000
      length 9.738928
      axis 0.0 0.0 0.0 xyz
   end
   begin
      id 7
      name Spine_dum3
      direction 0.000000 1.000000 0.000000
      length 9.738928
      axis 0.0 0.0 0.0 xyz
   end
   begin
      id 8
      name Head
      direction 0.000000 1.000000 0.000000
      length 4.527550
      axis 0.0 0.0 0.0 xyz
      dof rx ry rz
   end
   begin
      id 9
      name LeftShoulder
      direction 1.000000 0.000000 0.000000
      length 7.084015
      axis 0.0 0.0 -90.0 xyz
      dof rx ry rz
   end
   begin
      id 10
      name LeftArm
      direction 1.000000 0.000000 0.000000
      length 10.259319
      axis 0.0 0.0 -90.0 xyz
      dof rx ry rz
   end
   begin
      id 11
      name LeftForeArm
      direction 1.000000 0.000000 0.000000
      length 9.896984
      axis 0.0 0.0 -90.0 xyz
      dof ry rz rx
   end
   begin
      id 12
      name LeftHand
      direction 0.000000 0.000000 0.000000
      length 0.000000
      axis 0.0 0.0 -90.0 xyz
      dof rx ry rz
   end
   begin
      id 13
      name LeftHand_dum1
      direction 0.000000 0.000000 0.000000
      length 0.000000
      axis 0.0 0.0 -90.0 xyz
   end
   begin
      id 14
      name LeftHand_dum2
      direction 1.000000 0.000000 0.000000
      length 3.937000
      axis 0.0 0.0 -90.0 xyz
   end
   begin
      id 15
      name LeftHandThumb1
      direction 0.000000 0.000000 1.000000
      length 3.937000
      axis 0.0 0.0 -90.0 xyz
      dof rx rz ry
   end
   begin
      id 16
      name RightShoulder
      direction -1.000000 0.000000 0.000000
      length 7.084015
      axis 0.0 0.0 90.0 xyz
      dof rx ry rz
   end
   begin
      id 17
      name RightArm
      direction -1.000000 0.000000 0.000000
      length 10.259319
      axis 0.0 0.0 90.0 xyz
      dof rx ry rz
   end
   begin
      id 18
      name RightForeArm
      direction -1.000000 0.000000 0.000000
      length 9.896984
      axis 0.0 0.0 90.0 xyz
      dof ry rz rx
   end
   begin
      id 19
      name RightHand
      direction 0.000000 0.000000 0.000000
      length 0.000000
      axis 0.0 0.0 90.0 xyz
      dof rx ry rz
   end
   begin
      id 20
      name RightHand_dum1
      direction 0.000000 0.000000 0.000000
      length 0.000000
      axis 0.0 0.0 90.0 xyz
   end
   begin
      id 21
      name RightHand_dum2
      direction -1.000000 0.000000 0.000000
      length 3.937000
      axis 0.0 0.0 90.0 xyz
   end
   begin
      id 22
      name RightHandThumb1
      direction 0.000000 0.000000 1.000000
      length 3.937000
      axis 0.0 0.0 90.0 xyz
      dof rx rz ry
   end
   begin
      id 23
      name LeftUpLeg
      direction 0.000000 -1.000000 0.000000
      length 19.114733
      axis 0.0 0.0 0.0 xyz
      dof rx ry rz
   end
   begin
      id 24
      name LeftLeg
      direction 0.000000 -1.000000 0.000000
      length 16.045604
      axis 0.0 0.0 0.0 xyz
      dof rx ry rz
   end
   begin
      id 25
      name LeftFoot
      direction 0.000000 -0.258819 0.965926
      length 5.543155
      axis 15.0 0.0 0.0 xyz
      dof rx ry rz
   end
   begin
      id 26
      name LeftToeBase
      direction 0.000000 0.000000 1.000000
      length 2.952750
      axis 0.0 0.0 0.0 xyz
      dof rx ry rz
   end
   begin
      id 27
      name RightUpLeg
      direction 0.000000 -1.000000 0.000000
      length 19.114733
      axis 0.0 0.0 0.0 xyz
      dof rx ry rz
   end
   begin
      id 28
      name RightLeg
      direction 0.000000 -1.000000 0.000000
      length 16.045604
      axis 0.0 0.0 0.0 xyz
      dof rx ry rz
   end
   begin
      id 29
      name RightFoot
      direction 0.000000 -0.258819 0.965926
      length 5.543155
      axis 15.0 0.0 0.0 xyz
      dof rx ry rz
   end
   begin
      id 30
      name RightToeBase
      direction 0.000000 0.000000 1.000000
      length 2.952750
      axis 0.0 0.0 0.0 xyz
      dof rx ry rz
   end
:hierarchy
   begin
      root Spine_dum LeftUpLeg_dum RightUpLeg_dum
      Spine_dum Spine
      LeftUpLeg_dum LeftUpLeg
      RightUpLeg_dum RightUpLeg
      Spine Spine_dum1 Spine_dum2 Spine_dum3
      Spine_dum1 Head
      Spine_dum2 LeftShoulder
      Spine_dum3 RightShoulder
      LeftShoulder LeftArm
      LeftArm LeftForeArm
      LeftForeArm LeftHand
      LeftHand LeftHand_dum1 LeftHand_dum2
      LeftHand_dum1 LeftHandThumb1
      RightShoulder RightArm
      RightArm RightForeArm
      RightForeArm RightHand
      RightHand RightHand_dum1 RightHand_dum2
      RightHand_dum1 RightHandThumb1
      LeftUpLeg LeftLeg
      LeftLeg LeftFoot
      LeftFoot LeftToeBase
      RightUpLeg RightLeg
      RightLeg RightFoot
      RightFoot RightToeBase
   end

# File created by Blade
# Date/Time:  Tue Jan 27 17:27:32 2015
# Frame Rate: 120.000 fps
#------------------------------------------------------
:FULLY-SPECIFIED
:DEGREES
191
root 4.835352 36.594225 1.785522 -0.458598 -0.312718 1.441387
Spine 5.046673 8.448866 -8.014071
Head 17.928758 -5.257831 6.743009
LeftShoulder -7.989310 -7.729911 12.436726
LeftArm -14.959946 -35.665164 -40.214397
LeftForeArm 1.357198 -0.000000 96.255582
LeftHand -15.186237 -0.000000 26.433947
LeftHandThumb1 -26.253704 0.000000 33.147579
RightShoulder -11.004768 -19.298543 2.828125
RightArm 20.572445 -26.212586 60.361531
RightForeArm 176.670496 -0.000000 30.468291
RightHand 2.049790 0.000000 -1.950612
RightHandThumb1 -24.326973 -0.000000 -32.862282
LeftUpLeg 2.013123 4.077100 -6.298393
LeftLeg 8.779746 -0.000000 -0.000000
LeftFoot -20.121981 4.311476 -14.199368
LeftToeBase 14.880247 -0.000000 -0.000000
RightUpLeg -9.705490 -10.441141 -8.791205
RightLeg 73.930781 -0.000000 -0.000000
RightFoot -4.691705 -4.204895 10.480833
RightToeBase 0.886563 -0.000000 -0.000000
192
root 4.840325 36.595243 1.784061 -0.438359 -0.354991 1.427581
Spine 5.036907 8.482024 -7.992188
Head 17.726266 -5.217339 6.639894
LeftShoulder -8.006228 -7.731345 12.384666
LeftArm -14.997439 -35.650462 -40.198351
LeftForeArm 1.391860 -0.000000 96.433557
LeftHand -15.224669 -0.000000 26.408091
LeftHandThumb1 -26.253704 0.000000 33.147579
RightShoulder -10.951891 -19.249311 2.767312
RightArm 20.666003 -26.314117 60.277053
RightForeArm 176.710179 0.000000 30.454068
RightHand 2.083255 -0.000000 -1.959394
RightHandThumb1 -24.326973 -0.000000 -32.862282
LeftUpLeg 2.007112 4.115065 -6.293109
LeftLeg 8.742540 -0.000000 -0.000000
LeftFoot -20.102249 4.308504 -14.195727
LeftToeBase 14.854699 -0.000000 -0.000000
RightUpLeg -9.669997 -10.493184 -8.816239
RightLeg 74.123091 -0.000000 -0.000000
RightFoot -4.661649 -4.179180 10.321137
RightToeBase 0.973497 -0.000000 -0.000000
193
root 4.844897 36.595247 1.781918 -0.402997 -0.423159 1.410178
Spine 4.989903 8.546494 -7.954569
Head 17.528075 -5.296552 6.567784
LeftShoulder -8.005847 -7.710011 12.326269
LeftArm -15.021975 -35.620200 -40.193330
LeftForeArm 1.411422 -0.000000 96.585941
LeftHand -15.163843 -0.000000 26.323644
LeftHandThumb1 -26.253704 0.000000 33.147579
RightShoulder -10.912989 -19.242781 2.694965
RightArm 20.799427 -26.405274 60.191770
RightForeArm 176.732972 -0.000000 30.412450
RightHand 2.079660 -0.000000 -2.020490
RightHandThumb1 -24.326973 -0.000000 -32.862282
LeftUpLeg 1.981862 4.220923 -6.281121
LeftLeg 8.711643 -0.000000 -0.000000
LeftFoot -20.085394 4.279400 -14.159395
LeftToeBase 14.843820 -0.000000 -0.000000
RightUpLeg -9.673877 -10.510187 -8.827253
RightLeg 74.334201 -0.000000 -0.000000
RightFoot -4.637316 -4.127805 10.302687
RightToeBase 0.942730 -0.000000 -0.000000
194
root 4.845830 36.596707 1.780559 -0.367932 -0.423183 1.381220
Spine 4.955065 8.550796 -7.920527
Head 17.336837 -5.325916 6.454739
LeftShoulder -8.009415 -7.713526 12.283360
LeftArm -15.057041 -35.561411 -40.173923
LeftForeArm 1.451149 0.000000 96.741199
LeftHand -15.177989 0.000000 26.212515
LeftHandThumb1 -26.253704 0.000000 33.147579
RightShoulder -10.884919 -19.220389 2.662212
RightArm 20.915864 -26.506796 60.077253
RightForeArm 176.805073 -0.000000 30.380869
RightHand 2.005282 0.000000 -1.975082
RightHandThumb1 -24.326973 -0.000000 -32.862282
LeftUpLeg 1.952361 4.271368 -6.250183
LeftLeg 8.695192 -0.000000 -0.000000
LeftFoot -20.062038 4.219585 -14.134414
LeftToeBase 14.816980 -0.000000 -0.000000
RightUpLeg -9.672775 -10.587792 -8.812040
RightLeg 74.548092 -0.000000 -0.000000
RightFoot -4.614314 -4.160762 10.366319
RightToeBase 1.027472 -0.000000 -0.000000
195
root 4.849627 36.597431 1.776871 -0.334352 -0.469197 1.362348
Spine 4.922382 8.588894 -7.888292
Head 17.134829 -5.296985 6.403057
LeftShoulder -8.027356 -7.688177 12.247643
LeftArm -15.049081 -35.523083 -40.202462
LeftForeArm 1.512970 -0.000000 96.888704
LeftHand -15.264930 -0.000000 26.136225
LeftHandThumb1 -26.253704 0.000000 33.147579
RightShoulder -10.833731 -19.199926 2.606398
RightArm 20.994484 -26.520029 60.018384
RightForeArm 176.804679 -0.000000 30.375425
RightHand 2.011817 -0.000000 -1.994082
RightHandThumb1 -24.326973 -0.000000 -32.862282
LeftUpLeg 1.928249 4.334993 -6.236490
LeftLeg 8.660262 -0.000000 -0.000000
LeftFoot -20.036143 4.202631 -14.113346
LeftToeBase 14.818488 -0.000000 -0.000000
RightUpLeg -9.696145 -10.668178 -8.832471
RightLeg 74.773298 -0.000000 -0.000000
RightFoot -4.573624 -4.112889 10.245551
RightToeBase 1.045423 -0.000000 -0.000000
196
root 4.852945 36.597725 1.772424 -0.296333 -0.524970 1.344693
Spine 4.886385 8.645787 -7.859723
Head 16.942035 -5.303362 6.319825
LeftShoulder -8.036191 -7.700240 12.231462
LeftArm -15.068559 -35.450285 -40.221798
LeftForeArm 1.575678 -0.000000 97.026030
LeftHand -15.362022 -0.000000 26.090640
LeftHandThumb1 -26.253704 0.000000 33.147579
RightShoulder -10.802189 -19.167240 2.556551
RightArm 21.074349 -26.552812 59.954854
RightForeArm 176.793069 0.000000 30.360523
RightHand 2.017253 0.000000 -1.947264
RightHandThumb1 -24.326973 -0.000000 -32.862282
LeftUpLeg 1.890226 4.421231 -6.224654
LeftLeg 8.641971 -0.000000 -0.000000
LeftFoot -20.039438 4.175995 -14.110534
LeftToeBase 14.873626 -0.000000 -0.000000
RightUpLeg -9.740076 -10.726886 -8.839407
RightLeg 75.008177 -0.000000 -0.000000
RightFoot -4.559458 -4.117483 10.225566
RightToeBase 0.827255 -0.000000 -0.000000
197
root 4.855390 36.598385 1.766468 -0.248184 -0.556911 1.320049
Spine 4.848115 8.677681 -7.829734
Head 16.741156 -5.277685 6.267560
LeftShoulder -8.046040 -7.708077 12.217800
LeftArm -15.082931 -35.387583 -40.238935
LeftForeArm 1.602012 -0.000000 97.149660
LeftHand -15.372263 -0.000000 26.026852
LeftHandThumb1 -26.253704 0.000000 33.147579
RightShoulder -10.783364 -19.141219 2.530905
RightArm 21.155159 -26.554509 59.871338
RightForeArm 176.737459 0.000000 30.383781
RightHand 2.106715 -0.000000 -1.957036
RightHandThumb1 -24.326973 -0.000000 -32.862282
LeftUpLeg 1.841081 4.463154 -6.206775
LeftLeg 8.623636 -0.000000 -0.000000
LeftFoot -20.023383 4.162617 -14.090104
LeftToeBase 14.833506 -0.000000 -0.000000
RightUpLeg -9.801847 -10.793820 -8.835247
RightLeg 75.254005 -0.000000 -0.000000
RightFoot -4.607309 -4.047120 10.396218
RightToeBase 1.266185 -0.000000 -0.000000
198
root 4.857961 36.598404 1.761062 -0.212136 -0.598441 1.297405
Spine 4.820415 8.711010 -7.792636
Head 16.519030 -5.276941 6.223171
LeftShoulder -8.063474 -7.725233 12.205301
LeftArm -15.097298 -35.300530 -40.254125
LeftForeArm 1.651841 -0.000000 97.254753
LeftHand -15.413525 0.000000 26.102063
LeftHandThumb1 -26.253704 0.000000 33.147579
RightShoulder -10.744438 -19.114264 2.489904
RightArm 21.238525 -26.562326 59.775775
RightForeArm 176.967561 -0.000000 30.361427
RightHand 2.032932 -0.000000 -2.006502
RightHandThumb1 -24.326973 -0.000000 -32.862282
LeftUpLeg 1.797169 4.536872 -6.190654
LeftLeg 8.620261 -0.000000 -0.000000
LeftFoot -19.998216 4.151276 -14.032526
LeftToeBase 14.785624 -0.000000 -0.000000
RightUpLeg -9.872400 -10.849764 -8.828241
RightLeg 75.502391 -0.000000 -0.000000
RightFoot -4.585928 -4.102621 10.480016
RightToeBase 0.983150 -0.000000 -0.000000
199
root 4.860510 36.598352 1.755480 -0.195951 -0.630718 1.280611
Spine 4.820258 8.729809 -7.756639
Head 16.326795 -5.317043 6.141122
LeftShoulder -8.068038 -7.734433 12.186219
LeftArm -15.119412 -35.237690 -40.257023
LeftForeArm 1.703691 0.000000 97.351757
LeftHand -15.450222 -0.000000 26.167912
LeftHandThumb1 -26.253704 0.000000 33.147579
RightShoulder -10.698446 -19.093063 2.445945
RightArm 21.310130 -26.528312 59.712720
RightForeArm 177.012969 -0.000000 30.361206
RightHand 2.067188 -0.000000 -1.994938
RightHandThumb1 -24.326973 -0.000000 -32.862282
LeftUpLeg 1.767062 4.601450 -6.178134
LeftLeg 8.629956 -0.000000 -0.000000
LeftFoot -19.998998 4.139748 -13.975458
LeftToeBase 14.801273 -0.000000 -0.000000
RightUpLeg -9.906766 -10.930929 -8.833675
RightLeg 75.728667 -0.000000 -0.000000
RightFoot -4.567547 -4.080966 10.347614
RightToeBase 1.621250 -0.000000 -0.000000
200
root 4.864237 36.598243 1.746131 -0.143300 -0.691793 1.252364
Spine 4.775085 8.785454 -7.702330
Head 16.141007 -5.317984 6.018034
LeftShoulder -8.055327 -7.740487 12.151387
LeftArm -15.140233 -35.164460 -40.252191
LeftForeArm 1.727282 -0.000000 97.448248
LeftHand -15.505750 0.000000 26.298788
LeftHandThumb1 -26.253704 0.000000 33.147579
RightShoulder -10.664186 -19.060797 2.392603
RightArm 21.331320 -26.466435 59.689181
RightForeArm 176.966538 -0.000000 30.384187
RightHand 2.068649 -0.000000 -1.929272
RightHandThumb1 -24.326973 -0.000000 -32.862282
LeftUpLeg 1.693175 4.653838 -6.164445
LeftLeg 8.640961 -0.000000 -0.000000
LeftFoot -19.997584 4.161739 -13.945171
LeftToeBase 14.776745 -0.000000 -0.000000
RightUpLeg -10.020293 -10.973741 -8.821559
RightLeg 75.978972 -0.000000 -0.000000
RightFoot -4.546278 -4.032253 10.450752
RightToeBase 1.686811 -0.000000 -0.000000
